<svg width="25" height="25" viewBox="0 0 25 25" fill="none" xmlns="http://www.w3.org/2000/svg">
<path d="M8.36939 13.3693L12.597 16.7514C13.025 17.0937 13.6487 17.0279 13.9957 16.6038L22.3694 6.36926" stroke="#424242" stroke-width="2" stroke-linecap="round"/>
<path fill-rule="evenodd" clip-rule="evenodd" d="M11.5585 12.606L16.1432 7.00247C16.4929 6.57502 16.4299 5.945 16.0025 5.59527C15.5751 5.24555 14.945 5.30855 14.5953 5.73599L10.022 11.3256L11.5585 12.606ZM8.39218 16.476L6.85568 15.1955L6.20235 15.994L2.96926 13.5692C2.52743 13.2379 1.90063 13.3274 1.56926 13.7692C1.23789 14.2111 1.32743 14.8379 1.76926 15.1692L5.00235 17.594C5.85973 18.2371 7.0716 18.09 7.75026 17.2605L8.39218 16.476Z" fill="#424242"/>
</svg>
