<svg width="25" height="24" viewBox="0 0 25 24" fill="none" xmlns="http://www.w3.org/2000/svg">
<path fill-rule="evenodd" clip-rule="evenodd" d="M17.9424 10.7959L19.7384 8.99994C20.2837 8.45469 20.5563 8.18207 20.702 7.88797C20.9793 7.32842 20.9793 6.67146 20.702 6.11191C20.5563 5.81782 20.2837 5.54519 19.7384 4.99994C19.1932 4.45469 18.9205 4.18207 18.6265 4.03633C18.0669 3.75905 17.4099 3.75905 16.8504 4.03633C16.5563 4.18207 16.2837 4.45469 15.7384 4.99994L13.9198 6.8186C14.8836 8.4692 16.2698 9.84476 17.9424 10.7959ZM12.4653 8.27305L5.5948 15.1436C5.16974 15.5686 4.95721 15.7812 4.81747 16.0422C4.67774 16.3033 4.61879 16.5981 4.5009 17.1875L3.88551 20.2645C3.81899 20.5971 3.78572 20.7634 3.88033 20.858C3.97494 20.9526 4.14125 20.9194 4.47386 20.8529L7.55084 20.2375C8.14029 20.1196 8.43501 20.0606 8.69611 19.9209C8.95721 19.7812 9.16974 19.5686 9.5948 19.1436L16.4842 12.2542C14.8625 11.2385 13.4908 9.87622 12.4653 8.27305Z" fill="#424242"/>
</svg>
