<svg width="25" height="25" viewBox="0 0 25 25" fill="none" xmlns="http://www.w3.org/2000/svg">
<path d="M12.4811 5.79993H8.9055C7.28926 5.79993 6.48113 5.79993 5.97903 6.32063C5.47693 6.84132 5.47693 7.67938 5.47693 9.35548V18.2444C5.47693 19.9205 5.47693 20.7585 5.97903 21.2792C6.48113 21.7999 7.28926 21.7999 8.9055 21.7999H14.0484C15.6646 21.7999 16.4727 21.7999 16.9748 21.2792C17.4769 20.7585 17.4769 19.9205 17.4769 18.2444V10.9808C17.4769 10.6174 17.4769 10.4357 17.4117 10.2724C17.3464 10.109 17.2226 9.98059 16.9748 9.72367L13.6933 6.32063C13.4456 6.06371 13.3217 5.93525 13.1642 5.86759C13.0067 5.79993 12.8315 5.79993 12.4811 5.79993Z" stroke="white" stroke-width="2"/>
<path d="M9.47693 14.7999L13.4769 14.7999" stroke="white" stroke-width="2" stroke-linecap="round"/>
<path d="M9.47693 17.7999L12.4769 17.7999" stroke="white" stroke-width="2" stroke-linecap="round"/>
<path d="M12.4769 5.79993V9.79993C12.4769 10.7427 12.4769 11.2141 12.721 11.507C12.9651 11.7999 13.3579 11.7999 14.1436 11.7999H17.4769" stroke="white" stroke-width="2"/>
</svg>
