<svg width="25" height="25" viewBox="0 0 25 25" fill="none" xmlns="http://www.w3.org/2000/svg">
<path d="M5.47693 12.8212C5.47693 11.4634 5.47693 10.7846 5.75139 10.1878C6.02585 9.59108 6.54129 9.14927 7.57218 8.26565L8.57218 7.40851C10.4355 5.81138 11.3672 5.01282 12.4769 5.01282C13.5867 5.01282 14.5184 5.81138 16.3817 7.40851L17.3817 8.26565C18.4126 9.14927 18.928 9.59108 19.2025 10.1878C19.4769 10.7846 19.4769 11.4634 19.4769 12.8212V17.0616C19.4769 18.9472 19.4769 19.89 18.8911 20.4758C18.3054 21.0616 17.3625 21.0616 15.4769 21.0616H9.47693C7.59131 21.0616 6.6485 21.0616 6.06272 20.4758C5.47693 19.89 5.47693 18.9472 5.47693 17.0616V12.8212Z" stroke="#424242" stroke-width="2"/>
<path d="M14.9769 21.0615V16.0615C14.9769 15.5092 14.5292 15.0615 13.9769 15.0615H10.9769C10.4246 15.0615 9.97693 15.5092 9.97693 16.0615V21.0615" stroke="#424242" stroke-width="2" stroke-linecap="round" stroke-linejoin="round"/>
</svg>
