<svg width="25" height="24" viewBox="0 0 25 24" fill="none" xmlns="http://www.w3.org/2000/svg">
<path fill-rule="evenodd" clip-rule="evenodd" d="M21.3692 11V16C21.3692 18.8284 21.3692 20.2426 20.4906 21.1213C19.6119 22 18.1977 22 15.3692 22H9.36923C6.5408 22 5.12659 22 4.24791 21.1213C3.36923 20.2426 3.36923 18.8284 3.36923 16V11C3.36923 11.9319 3.36923 12.3978 3.52147 12.7654C3.72446 13.2554 4.11381 13.6448 4.60387 13.8478C4.97141 14 5.43735 14 6.36923 14H7.04468C7.62569 14 7.9162 14 8.14811 14.1338C8.20668 14.1675 8.26168 14.2072 8.31226 14.2521C8.51249 14.4298 8.60436 14.7054 8.78809 15.2566L8.91338 15.6325C9.13339 16.2925 9.24339 16.6225 9.50528 16.8112C9.76717 17 10.115 17 10.8108 17H13.9277C14.6234 17 14.9713 17 15.2332 16.8112C15.4951 16.6225 15.6051 16.2925 15.8251 15.6325L15.9504 15.2566L15.9504 15.2566L15.9504 15.2566C16.1341 14.7054 16.226 14.4298 16.4262 14.2521C16.4768 14.2072 16.5318 14.1675 16.5904 14.1338C16.8223 14 17.1128 14 17.6938 14H18.3692C19.3011 14 19.7671 14 20.1346 13.8478C20.6247 13.6448 21.014 13.2554 21.217 12.7654C21.3692 12.3978 21.3692 11.9319 21.3692 11Z" fill="white"/>
<path d="M16.3692 6H17.3692C19.2549 6 20.1977 6 20.7834 6.58579C21.3692 7.17157 21.3692 8.11438 21.3692 10V18C21.3692 19.8856 21.3692 20.8284 20.7834 21.4142C20.1977 22 19.2549 22 17.3692 22H7.36923C5.48361 22 4.54081 22 3.95502 21.4142C3.36923 20.8284 3.36923 19.8856 3.36923 18V10C3.36923 8.11438 3.36923 7.17157 3.95502 6.58579C4.54081 6 5.48361 6 7.36923 6H8.36923" stroke="white" stroke-width="2"/>
<path d="M8.36923 10L12.3692 13M12.3692 13L16.3692 10M12.3692 13L12.3692 3" stroke="white" stroke-width="2"/>
</svg>
