<svg width="84" height="84" viewBox="0 0 84 84" fill="none" xmlns="http://www.w3.org/2000/svg">
<path d="M31.5 35L44.7581 44.9436C45.1766 45.2574 45.7662 45.1957 46.1107 44.8021L70 17.5" stroke="#424242" stroke-width="2" stroke-linecap="round"/>
<path d="M73.5 42C73.5 48.5817 71.4384 54.9981 67.6047 60.348C63.771 65.698 58.3578 69.7127 52.1253 71.8283C45.8929 73.9439 39.1543 74.0542 32.856 72.1436C26.5577 70.233 21.0161 66.3976 17.0094 61.176C13.0027 55.9544 10.7322 49.6088 10.5169 43.0307C10.3015 36.4525 12.1521 29.972 15.8087 24.4995C19.4653 19.027 24.7443 14.8374 30.9041 12.519C37.064 10.2006 43.7953 9.86986 50.1528 11.5733" stroke="#424242" stroke-width="2" stroke-linecap="round"/>
</svg>
