<svg width="84" height="85" viewBox="0 0 84 85" fill="none" xmlns="http://www.w3.org/2000/svg">
<path d="M10.5 19C10.5 15.2288 10.5 13.3431 11.6716 12.1716C12.8431 11 14.7288 11 18.5 11H65.5C69.2712 11 71.1569 11 72.3284 12.1716C73.5 13.3431 73.5 15.2288 73.5 19V66C73.5 69.7712 73.5 71.6569 72.3284 72.8284C71.1569 74 69.2712 74 65.5 74H18.5C14.7288 74 12.8431 74 11.6716 72.8284C10.5 71.6569 10.5 69.7712 10.5 66V19Z" stroke="#424242" stroke-width="2"/>
<path fill-rule="evenodd" clip-rule="evenodd" d="M12.5 51.4995L12.9571 51.9566L28.0294 36.8842C28.9991 35.9146 29.6481 35.2693 30.1782 34.8757C30.6918 34.4943 30.8993 34.4984 31.0145 34.5206C31.1297 34.5428 31.3239 34.616 31.6591 35.1609C32.0051 35.7232 32.368 36.5634 32.9082 37.8238L39.9172 54.1782L39.944 54.2406C40.1843 54.8017 40.4068 55.3211 40.6429 55.7048C40.8985 56.1202 41.2928 56.5835 41.9591 56.7119C42.6254 56.8402 43.1636 56.5564 43.5552 56.2656C43.9169 55.9971 44.3163 55.5975 44.7478 55.1659L44.7959 55.1177L53.8787 46.035C54.5653 45.3483 55.0107 44.906 55.3817 44.6229C55.7296 44.3574 55.8923 44.3279 56 44.3279C56.1077 44.3279 56.2704 44.3574 56.6183 44.6229C56.9893 44.906 57.4347 45.3483 58.1213 46.035L69.2929 57.2066L70.7071 55.7924L59.5355 44.6208L59.489 44.5743C58.8622 43.9474 58.3221 43.4072 57.8315 43.0329C57.3056 42.6317 56.7208 42.3279 56 42.3279C55.2792 42.3279 54.6944 42.6317 54.1685 43.0329C53.6779 43.4072 53.1378 43.9473 52.511 44.5742L52.4645 44.6208L43.3817 53.7035C42.8853 54.2 42.5912 54.4904 42.3628 54.6599L42.3528 54.6673L42.3463 54.6568C42.1973 54.4145 42.032 54.0356 41.7555 53.3903L34.7465 37.036L34.7151 36.9627L34.715 36.9626C34.2147 35.795 33.7952 34.8162 33.3625 34.1128C32.91 33.3773 32.3195 32.7351 31.3927 32.5566C30.4659 32.3782 29.6791 32.7551 28.9858 33.27C28.3228 33.7623 27.5699 34.5153 26.6717 35.4135L26.6717 35.4136L26.6152 35.47L12.5 49.5853V51.4995ZM42.2161 54.7525C42.2161 54.7524 42.2176 54.7518 42.2205 54.7508C42.2175 54.7521 42.2161 54.7526 42.2161 54.7525ZM42.4467 54.7957C42.4461 54.7952 42.4455 54.7946 42.4447 54.794C42.447 54.7963 42.4482 54.7973 42.4482 54.7972C42.4482 54.7971 42.4477 54.7966 42.4467 54.7957Z" fill="#424242"/>
<circle cx="57.75" cy="26.75" r="5.25" fill="#424242"/>
</svg>
