<svg width="84" height="85" viewBox="0 0 84 85" fill="none" xmlns="http://www.w3.org/2000/svg">
<path d="M15.75 40.75H68.25" stroke="#424242" stroke-width="2" stroke-miterlimit="1.41421"/>
<path d="M15.75 18.65C15.75 17.8099 15.75 17.3899 15.9135 17.069C16.0573 16.7868 16.2868 16.5573 16.569 16.4135C16.8899 16.25 17.3099 16.25 18.15 16.25H35.7224C36.0981 16.25 36.2859 16.25 36.4565 16.3018C36.6074 16.3476 36.7478 16.4228 36.8697 16.523C37.0074 16.6361 37.1116 16.7925 37.32 17.1051L43.18 25.8963C43.3884 26.209 43.4926 26.3653 43.6303 26.4784C43.7522 26.5786 43.8926 26.6538 44.0435 26.6996C44.2141 26.7514 44.4019 26.7514 44.7776 26.7514H65.85C66.6901 26.7514 67.1101 26.7514 67.431 26.9149C67.7132 27.0587 67.9427 27.2882 68.0865 27.5704C68.25 27.8913 68.25 28.3113 68.25 29.1514V62.8514C68.25 63.6915 68.25 64.1115 68.0865 64.4324C67.9427 64.7146 67.7132 64.9441 67.431 65.0879C67.1101 65.2514 66.6901 65.2514 65.85 65.2514H18.15C17.3099 65.2514 16.8899 65.2514 16.569 65.0879C16.2868 64.9441 16.0573 64.7146 15.9135 64.4324C15.75 64.1115 15.75 63.6915 15.75 62.8514V18.65Z" stroke="#424242" stroke-width="2"/>
</svg>
