<svg width="84" height="84" viewBox="0 0 84 84" fill="none" xmlns="http://www.w3.org/2000/svg">
<path d="M73.5 42H60.5704C60.0464 42 59.7844 42 59.5633 42.1183C59.3422 42.2367 59.1969 42.4546 58.9063 42.8906L53.0937 51.6094C52.8031 52.0454 52.6578 52.2633 52.4367 52.3817C52.2156 52.5 51.9536 52.5 51.4296 52.5H32.5704C32.0464 52.5 31.7844 52.5 31.5633 52.3817C31.3422 52.2633 31.1969 52.0454 30.9063 51.6094L25.0937 42.8906C24.8031 42.4546 24.6578 42.2367 24.4367 42.1183C24.2156 42 23.9536 42 23.4296 42H10.5" stroke="#424242" stroke-width="2"/>
<path d="M17.5 31.5L10.7929 38.2071C10.6054 38.3946 10.5 38.649 10.5 38.9142V64.5C10.5 65.6046 11.3954 66.5 12.5 66.5H71.5C72.6046 66.5 73.5 65.6046 73.5 64.5V38.9142C73.5 38.649 73.3946 38.3946 73.2071 38.2071L66.5 31.5" stroke="#424242" stroke-width="2" stroke-linecap="round"/>
<path d="M29.75 24.5L42 35M42 35L54.25 24.5M42 35L42 10.5" stroke="#424242" stroke-width="2"/>
</svg>
