<svg width="25" height="24" viewBox="0 0 25 24" fill="none" xmlns="http://www.w3.org/2000/svg">
<path fill-rule="evenodd" clip-rule="evenodd" d="M16.6588 12.7988C16.7111 12.5407 16.7385 12.2736 16.7385 12C16.7385 9.79086 14.9477 8 12.7385 8C12.465 8 12.1978 8.02746 11.9397 8.07977L16.6588 12.7988ZM9.40529 9.78799C8.984 10.4216 8.73853 11.1821 8.73853 12C8.73853 14.2091 10.5294 16 12.7385 16C13.5564 16 14.317 15.7545 14.9505 15.3332L13.4767 13.8594C13.2483 13.9501 12.9992 14 12.7385 14C11.634 14 10.7385 13.1046 10.7385 12C10.7385 11.7393 10.7884 11.4902 10.8792 11.2619L9.40529 9.78799Z" fill="#828387"/>
<path fill-rule="evenodd" clip-rule="evenodd" d="M17.2577 17.6405L15.7884 16.1712C14.8162 16.6805 13.7863 17 12.7385 17C11.2127 17 9.72469 16.3224 8.39767 15.3677C7.07855 14.4186 6.00261 13.2558 5.32239 12.43C5.22262 12.3088 5.1481 12.2182 5.08638 12.1385C5.03751 12.0754 5.00639 12.0315 4.98608 12C5.00639 11.9685 5.03751 11.9246 5.08638 11.8615C5.14811 11.7818 5.22262 11.6912 5.32239 11.57C5.9878 10.7622 7.03187 9.63187 8.31184 8.69463L6.88311 7.2659C5.53495 8.29616 4.46099 9.47005 3.77862 10.2985C3.75503 10.3272 3.73045 10.3566 3.70515 10.3869L3.70513 10.3869C3.39171 10.7624 2.96826 11.2696 2.96826 12C2.96826 12.7304 3.39171 13.2376 3.70513 13.6131L3.70535 13.6133C3.73058 13.6435 3.7551 13.6729 3.77862 13.7015C4.51849 14.5998 5.7187 15.9041 7.22964 16.9912C8.73268 18.0725 10.6286 19 12.7385 19C14.4086 19 15.9445 18.419 17.2577 17.6405ZM9.54535 5.6855C10.5291 5.26871 11.6028 5 12.7385 5C14.8485 5 16.7444 5.92747 18.2474 7.00885C19.7584 8.0959 20.9586 9.40025 21.6985 10.2985C21.722 10.3272 21.7466 10.3566 21.7719 10.3869L21.7719 10.3869C22.0854 10.7624 22.5088 11.2696 22.5088 12C22.5088 12.7304 22.0854 13.2376 21.7719 13.6131C21.7466 13.6434 21.722 13.6728 21.6985 13.7015C21.2118 14.2923 20.526 15.0589 19.6835 15.8237L18.2675 14.4077C19.0474 13.708 19.6924 12.9912 20.1547 12.43C20.2545 12.3088 20.329 12.2182 20.3907 12.1385C20.4396 12.0754 20.4707 12.0315 20.491 12C20.4707 11.9685 20.4396 11.9246 20.3907 11.8615C20.329 11.7818 20.2545 11.6912 20.1547 11.57C19.4745 10.7442 18.3985 9.58138 17.0794 8.63233C15.7524 7.6776 14.2643 7 12.7385 7C12.1875 7 11.6414 7.08837 11.1061 7.24624L9.54535 5.6855Z" fill="#828387"/>
<path d="M5.73853 2L21.7385 18" stroke="#828387" stroke-width="2"/>
</svg>
